<?xml version="1.0" encoding="utf-8"?>
<!-- Generator: Adobe Illustrator 23.0.1, SVG Export Plug-In . SVG Version: 6.00 Build 0)  -->
<svg version="1.1" id="Layer_1" xmlns="http://www.w3.org/2000/svg" xmlns:xlink="http://www.w3.org/1999/xlink" x="0px" y="0px"
	 viewBox="0 0 24 24" style="enable-background:new 0 0 24 24;" xml:space="preserve">
<style type="text/css">
	.st0{fill:#FFFFFF;}
</style>
<path class="st0" d="M3.5,12c0,0.55,0.45,1,1,1h12.53l-4.22,4.22c-0.41,0.41-0.41,1.07,0,1.48c0.41,0.41,1.07,0.41,1.48,0l5.91-5.9
	c0.22-0.22,0.32-0.51,0.3-0.79c0.01-0.28-0.09-0.57-0.3-0.79l-5.91-5.9c-0.41-0.41-1.07-0.41-1.48,0c-0.41,0.41-0.41,1.07,0,1.48
	L17.03,11H4.5C3.95,11,3.5,11.45,3.5,12z"/>
</svg>
