<?xml version="1.0" encoding="utf-8"?>
<!-- Generator: Adobe Illustrator 23.0.2, SVG Export Plug-In . SVG Version: 6.00 Build 0)  -->
<svg version="1.1" id="Layer_1" xmlns="http://www.w3.org/2000/svg" xmlns:xlink="http://www.w3.org/1999/xlink" x="0px" y="0px"
	 viewBox="0 0 866.33 368.37" style="enable-background:new 0 0 866.33 368.37;" xml:space="preserve">
<style type="text/css">
	.Arched_x0020_Green{fill:url(#SVGID_1_);stroke:#FFFFFF;stroke-width:0.25;stroke-miterlimit:1;}
</style>
<linearGradient id="SVGID_1_" gradientUnits="userSpaceOnUse" x1="179.959" y1="599.5225" x2="180.6661" y2="598.8154">
	<stop  offset="0" style="stop-color:#15A235"/>
	<stop  offset="0.9831" style="stop-color:#21371A"/>
</linearGradient>
<g>
	<g>
		<path d="M386.32,347.19c-0.38,0-0.73-0.23-0.88-0.6L258.95,17.06c-0.19-0.48,0.06-1.03,0.54-1.22c0.48-0.18,1.03,0.06,1.21,0.54
			L387.2,345.91c0.19,0.48-0.06,1.03-0.54,1.21C386.55,347.17,386.43,347.19,386.32,347.19"/>
	</g>
</g>
<g>
	<polygon points="491.41,310.76 468.41,250.92 468.28,250.6 464.29,250.6 441.03,310.99 413.56,239.87 407.73,239.87 438.52,319.99 
		438.64,320.31 442.9,320.31 466.29,259.48 489.63,320.31 493.75,320.31 524.66,239.87 518.74,239.87 	"/>
	<polygon points="544.63,320.31 587.87,320.31 587.87,315.21 550.13,315.21 550.13,280.59 581.25,280.59 581.25,275.49 
		550.13,275.49 550.13,244.97 587.87,244.97 587.87,239.87 544.63,239.87 	"/>
	<polygon points="733.71,239.87 727.06,239.87 687.52,282.28 687.52,239.87 682.03,239.87 682.03,320.31 687.52,320.31 
		687.52,289.55 696.16,280.17 731.41,320.14 731.56,320.31 738.57,320.31 699.88,276.26 	"/>
	<polygon points="613.99,320.31 657.23,320.31 657.23,315.21 619.49,315.21 619.49,280.59 650.61,280.59 650.61,275.49 
		619.49,275.49 619.49,244.97 657.23,244.97 657.23,239.87 613.99,239.87 	"/>
	<path d="M437.86,220.79h5.77l-30.91-80.46h-4.52l-30.89,80.46h5.76l9.1-23.72h36.54L437.86,220.79z M426.77,191.98h-32.65
		l16.33-42.55L426.77,191.98z"/>
	<polygon points="532.43,145.48 560.77,145.48 560.77,220.83 566.26,220.83 566.26,145.48 594.6,145.48 594.6,140.38 532.43,140.38 
			"/>
	<path d="M648.85,108.28c6.41-6.9,9.8-16.7,9.8-28.33c0-25.27-15.58-40.35-41.68-40.35h-22.34v80.44h22.34
		C630.88,120.04,641.6,116.08,648.85,108.28z M653.15,79.95c0,13.02-4.68,34.86-36.05,34.86h-16.98V44.83h16.98
		C648.47,44.83,653.15,66.83,653.15,79.95z"/>
	<polygon points="512.88,50.67 561.66,120.04 565.72,120.04 565.72,39.6 560.36,39.6 560.36,108.97 511.59,39.6 507.52,39.6 
		507.52,120.04 512.88,120.04 	"/>
	<path d="M717.34,37.74c-23.38,0-40.35,17.7-40.35,42.08c0,24.38,16.97,42.07,40.35,42.07c23.38,0,40.36-17.69,40.36-42.07
		C757.7,55.44,740.73,37.74,717.34,37.74z M752.21,79.82c0,21.69-14.34,36.85-34.86,36.85c-20.52,0-34.86-15.15-34.86-36.85
		c0-21.69,14.33-36.85,34.86-36.85C737.87,42.97,752.21,58.13,752.21,79.82z"/>
	<polygon points="832.77,39.6 832.77,108.97 784,39.6 779.93,39.6 779.93,120.04 785.29,120.04 785.29,50.67 834.07,120.04 
		838.13,120.04 838.13,39.6 	"/>
	<polygon points="393.45,114.94 355.71,114.94 355.71,39.6 350.21,39.6 350.21,120.04 393.45,120.04 	"/>
	<path d="M443.4,121.89c23.38,0,40.36-17.69,40.36-42.07c0-24.38-16.97-42.08-40.36-42.08c-23.38,0-40.35,17.7-40.35,42.08
		C403.05,104.2,420.02,121.89,443.4,121.89z M408.54,79.82c0-21.69,14.33-36.85,34.86-36.85c20.52,0,34.86,15.15,34.86,36.85
		c0,21.69-14.33,36.85-34.86,36.85C422.88,116.67,408.54,101.51,408.54,79.82z"/>
	<path d="M467.37,220.82h5.5v-34.05H490l23.58,34.05h6.51l-24.19-34.43c13.86-2.05,18.83-13.04,18.83-22.77
		c0-10.74-6.2-23.29-23.68-23.29h-23.68V220.82z M491.05,145.43c16.87,0,18.18,13.92,18.18,18.19c0,5.43-1.77,18.05-18.18,18.05
		h-18.19v-36.24H491.05z"/>
</g>
<g>
	<path d="M52.74,172.81C52.74,172.81,52.75,172.81,52.74,172.81C52.75,172.81,52.75,172.81,52.74,172.81H134
		c3.2,0,5.78-2.59,5.78-5.79c0-3.19-2.59-5.78-5.78-5.78H58.53V43.6c0-3.19-2.59-5.79-5.78-5.79c-3.19,0-5.78,2.59-5.78,5.79v123.42
		C46.96,170.22,49.55,172.81,52.74,172.81z"/>
	<path d="M106.39,317.71c0.01-0.02,0.02-0.03,0.02-0.04l99.01-257.93l24.19,63.01h-36.18c-3.19,0-5.78,2.59-5.78,5.79
		c0,3.2,2.59,5.79,5.78,5.79h40.63l13.35,34.78c0.88,2.3,3.08,3.71,5.4,3.71c0.69,0,1.39-0.12,2.07-0.39
		c2.98-1.14,4.47-4.49,3.33-7.47L210.82,41.52c-0.02-0.05-0.04-0.09-0.06-0.14c-0.04-0.09-0.08-0.18-0.12-0.27
		c-0.04-0.09-0.09-0.17-0.13-0.26c-0.04-0.08-0.08-0.15-0.13-0.23c-0.05-0.09-0.11-0.18-0.17-0.26c-0.05-0.07-0.09-0.13-0.14-0.2
		c-0.06-0.09-0.13-0.17-0.19-0.25c-0.05-0.06-0.11-0.12-0.16-0.19c-0.07-0.08-0.14-0.15-0.21-0.23c-0.06-0.06-0.12-0.12-0.19-0.18
		c-0.07-0.07-0.15-0.13-0.22-0.2c-0.07-0.06-0.14-0.11-0.21-0.17c-0.08-0.06-0.16-0.12-0.24-0.17c-0.07-0.05-0.15-0.1-0.22-0.14
		c-0.09-0.05-0.18-0.11-0.27-0.16c-0.07-0.04-0.14-0.07-0.22-0.11c-0.1-0.05-0.21-0.1-0.32-0.14c-0.04-0.02-0.07-0.03-0.11-0.05
		c-0.03-0.01-0.06-0.02-0.1-0.03c-0.11-0.04-0.22-0.08-0.33-0.11c-0.07-0.02-0.15-0.04-0.22-0.06c-0.1-0.03-0.21-0.05-0.31-0.07
		c-0.08-0.02-0.17-0.03-0.25-0.05c-0.1-0.01-0.2-0.02-0.3-0.03c-0.09-0.01-0.18-0.02-0.27-0.02c-0.09,0-0.19,0-0.28,0
		c-0.09,0-0.19,0-0.28,0c-0.09,0-0.18,0.01-0.27,0.02c-0.1,0.01-0.2,0.02-0.3,0.03c-0.08,0.01-0.17,0.03-0.25,0.05
		c-0.11,0.02-0.21,0.04-0.32,0.07c-0.07,0.02-0.15,0.04-0.22,0.06c-0.11,0.03-0.23,0.07-0.34,0.11c-0.03,0.01-0.06,0.02-0.1,0.03
		c-0.04,0.01-0.07,0.03-0.11,0.05c-0.11,0.04-0.21,0.09-0.32,0.14c-0.07,0.04-0.14,0.07-0.21,0.11c-0.09,0.05-0.19,0.1-0.28,0.16
		c-0.07,0.04-0.15,0.09-0.22,0.14c-0.08,0.05-0.16,0.11-0.24,0.17c-0.07,0.05-0.14,0.11-0.21,0.16c-0.08,0.06-0.15,0.13-0.23,0.2
		c-0.06,0.06-0.12,0.11-0.18,0.17c-0.08,0.07-0.15,0.15-0.22,0.23c-0.05,0.06-0.11,0.12-0.16,0.18c-0.07,0.08-0.13,0.17-0.2,0.26
		c-0.05,0.06-0.09,0.13-0.14,0.2c-0.06,0.09-0.11,0.18-0.17,0.27c-0.04,0.07-0.09,0.15-0.13,0.23c-0.05,0.09-0.09,0.17-0.13,0.26
		c-0.04,0.09-0.08,0.18-0.12,0.27c-0.02,0.05-0.04,0.09-0.06,0.14l-99.01,257.93L58.14,187.79c-1.14-2.98-4.49-4.48-7.47-3.33
		c-2.98,1.15-4.47,4.49-3.33,7.47l48.27,125.74c0.02,0.04,0.04,0.07,0.05,0.11c0.09,0.22,0.19,0.45,0.31,0.66
		c0.04,0.07,0.08,0.13,0.12,0.19c0.09,0.15,0.19,0.3,0.3,0.44c0.06,0.08,0.12,0.16,0.18,0.23c0.14,0.17,0.29,0.33,0.45,0.48
		c0.07,0.07,0.15,0.13,0.23,0.2c0.11,0.1,0.23,0.19,0.36,0.28c0.08,0.06,0.17,0.12,0.25,0.18c0.18,0.12,0.36,0.22,0.56,0.32
		c0.11,0.05,0.22,0.1,0.33,0.15c0.06,0.03,0.12,0.06,0.19,0.08c0.03,0.01,0.06,0.01,0.09,0.03c0.28,0.1,0.57,0.18,0.87,0.24
		c0.04,0.01,0.07,0.02,0.11,0.03c0.33,0.06,0.67,0.1,1.01,0.1c0.15,0,0.31-0.03,0.46-0.04c0.15-0.01,0.3-0.02,0.44-0.04
		c0.16-0.03,0.32-0.07,0.48-0.11c0.16-0.04,0.32-0.08,0.47-0.13c0.07-0.02,0.15-0.03,0.22-0.06c0.99-0.38,1.8-1,2.42-1.77
		c0.01-0.02,0.02-0.03,0.04-0.05C105.89,318.74,106.18,318.24,106.39,317.71z"/>
	<path d="M254.87,184.46c-2.98-1.15-6.33,0.34-7.47,3.33l-42.87,111.67l-36.06-93.94c-1.15-2.98-4.49-4.48-7.47-3.33
		c-2.98,1.15-4.47,4.49-3.33,7.47l41.46,108.01c0.01,0.04,0.04,0.07,0.05,0.11c0.09,0.23,0.2,0.46,0.32,0.67
		c0.03,0.05,0.06,0.1,0.09,0.15c0.1,0.17,0.22,0.34,0.34,0.5c0.05,0.06,0.09,0.13,0.14,0.19c0.15,0.18,0.31,0.36,0.49,0.52
		c0.05,0.05,0.1,0.09,0.15,0.13c0.15,0.13,0.3,0.25,0.47,0.37c0.05,0.04,0.11,0.08,0.16,0.12c0.2,0.13,0.41,0.25,0.63,0.36
		c0.06,0.03,0.13,0.06,0.19,0.09c0.1,0.04,0.19,0.09,0.29,0.13c0.05,0.02,0.09,0.02,0.14,0.04c0.23,0.08,0.47,0.15,0.71,0.2
		c0.09,0.02,0.17,0.04,0.25,0.06c0.32,0.05,0.64,0.09,0.97,0.09c0.02,0,0.05-0.01,0.07-0.01c0.3,0,0.59-0.03,0.89-0.08
		c0.1-0.02,0.21-0.05,0.31-0.07c0.22-0.05,0.44-0.11,0.66-0.18c0.05-0.02,0.1-0.02,0.16-0.04c0.11-0.04,0.22-0.09,0.32-0.14
		c0.05-0.02,0.09-0.04,0.14-0.06c0.23-0.11,0.45-0.24,0.66-0.38c0.04-0.03,0.08-0.06,0.12-0.09c0.18-0.13,0.35-0.26,0.52-0.41
		c0.04-0.03,0.08-0.07,0.12-0.1c0.18-0.17,0.35-0.35,0.51-0.54c0.04-0.05,0.08-0.11,0.12-0.16c0.13-0.17,0.26-0.35,0.37-0.54
		c0.02-0.04,0.05-0.08,0.07-0.12c0.13-0.22,0.23-0.45,0.33-0.69c0.01-0.03,0.03-0.06,0.05-0.1l48.27-125.74
		C259.34,188.95,257.85,185.6,254.87,184.46z"/>
</g>
</svg>
