<?xml version="1.0" encoding="utf-8"?>
<!-- Generator: Adobe Illustrator 23.0.1, SVG Export Plug-In . SVG Version: 6.00 Build 0)  -->
<svg version="1.1" id="Layer_1" xmlns="http://www.w3.org/2000/svg" xmlns:xlink="http://www.w3.org/1999/xlink" x="0px" y="0px"
	 viewBox="0 0 35 7" style="enable-background:new 0 0 35 7;" xml:space="preserve">
<style type="text/css">
	.st0{fill:#322F2E;}
</style>
<g>
	<path class="st0" d="M5.8,1.84v4.72c0,0.09-0.06,0.15-0.15,0.15H4.53c-0.09,0-0.14-0.06-0.15-0.15L4.35,6.19
		C4,6.58,3.53,6.85,2.91,6.85c-1.39,0-2.42-1.17-2.42-2.63s1.03-2.63,2.42-2.63c0.59,0,1.08,0.28,1.44,0.69l0.03-0.42
		c0.01-0.09,0.06-0.15,0.15-0.15h1.12C5.74,1.69,5.8,1.75,5.8,1.84z M4.23,4.2c0-0.67-0.48-1.23-1.13-1.23
		c-0.66,0-1.14,0.53-1.14,1.23c0,0.71,0.48,1.24,1.14,1.24C3.75,5.44,4.23,4.87,4.23,4.2z"/>
	<path class="st0" d="M10.27,2.06L9.93,2.94C9.89,3.06,9.8,3.08,9.68,3.05c-0.1-0.03-0.23-0.08-0.42-0.08
		c-0.64,0-1.02,0.47-1.02,1.09v2.5c0,0.09-0.06,0.15-0.15,0.15H6.86c-0.09,0-0.15-0.06-0.15-0.15V1.84c0-0.09,0.06-0.15,0.15-0.15
		h1.18c0.09,0,0.14,0.06,0.15,0.15l0.04,0.58c0.26-0.49,0.68-0.85,1.29-0.85c0.3,0,0.55,0.12,0.7,0.26
		C10.3,1.91,10.3,1.99,10.27,2.06z"/>
	<path class="st0" d="M13.95,5.03c0.08-0.07,0.15-0.07,0.23,0l0.74,0.71c0.06,0.06,0.07,0.14,0.01,0.22
		c-0.47,0.54-1.17,0.89-1.97,0.89c-1.45,0-2.57-1.16-2.57-2.63s1.13-2.63,2.57-2.63c0.78,0,1.47,0.35,1.94,0.89
		c0.06,0.07,0.05,0.15-0.01,0.22L14.14,3.4C14.07,3.47,14,3.46,13.92,3.39C13.63,3.14,13.34,3,13,3c-0.67,0-1.14,0.52-1.14,1.21
		S12.33,5.42,13,5.42C13.36,5.42,13.66,5.28,13.95,5.03z"/>
	<path class="st0" d="M20.66,1.84v4.72c0,0.09-0.06,0.15-0.15,0.15h-1.12c-0.09,0-0.14-0.06-0.15-0.15l-0.03-0.37
		c-0.35,0.39-0.82,0.66-1.44,0.66c-1.39,0-2.42-1.17-2.42-2.63s1.03-2.63,2.42-2.63c0.59,0,1.08,0.28,1.44,0.69l0.03-0.42
		c0.01-0.09,0.06-0.15,0.15-0.15h1.12C20.6,1.69,20.66,1.75,20.66,1.84z M19.09,4.2c0-0.67-0.48-1.23-1.13-1.23
		c-0.66,0-1.14,0.53-1.14,1.23c0,0.71,0.48,1.24,1.14,1.24C18.61,5.44,19.09,4.87,19.09,4.2z"/>
	<path class="st0" d="M25.13,2.06l-0.34,0.88c-0.04,0.12-0.13,0.14-0.26,0.11c-0.1-0.03-0.23-0.08-0.42-0.08
		c-0.64,0-1.02,0.47-1.02,1.09v2.5c0,0.09-0.06,0.15-0.15,0.15h-1.23c-0.09,0-0.15-0.06-0.15-0.15V1.84c0-0.09,0.06-0.15,0.15-0.15
		h1.18c0.09,0,0.14,0.06,0.15,0.15l0.04,0.58c0.26-0.49,0.68-0.85,1.29-0.85c0.3,0,0.55,0.12,0.7,0.26
		C25.16,1.91,25.16,1.99,25.13,2.06z"/>
	<path class="st0" d="M28.77,1.84v0.93c0,0.09-0.06,0.15-0.15,0.15H27.9v3.63c0,0.09-0.06,0.15-0.15,0.15h-1.23
		c-0.09,0-0.15-0.06-0.15-0.15V2.93h-0.72c-0.09,0-0.15-0.06-0.15-0.15V1.84c0-0.09,0.06-0.15,0.15-0.15h0.72V0.31
		c0-0.09,0.06-0.15,0.15-0.15h1.23c0.09,0,0.15,0.06,0.15,0.15v1.38h0.72C28.71,1.69,28.77,1.75,28.77,1.84z"/>
	<path class="st0" d="M34.51,1.84v4.72c0,0.09-0.06,0.15-0.15,0.15h-1.12c-0.09,0-0.14-0.06-0.15-0.15l-0.03-0.37
		c-0.35,0.39-0.82,0.66-1.44,0.66c-1.39,0-2.42-1.17-2.42-2.63s1.03-2.63,2.42-2.63c0.59,0,1.08,0.28,1.44,0.69l0.03-0.42
		c0.01-0.09,0.06-0.15,0.15-0.15h1.12C34.45,1.69,34.51,1.75,34.51,1.84z M32.94,4.2c0-0.67-0.48-1.23-1.13-1.23
		c-0.66,0-1.14,0.53-1.14,1.23c0,0.71,0.48,1.24,1.14,1.24C32.46,5.44,32.94,4.87,32.94,4.2z"/>
</g>
</svg>
